<svg width="51" height="40" xmlns="http://www.w3.org/2000/svg"><g fill-rule="nonzero" fill="none"><path d="M9.306 39.675v-2.638c.031-.448-.13-.889-.445-1.208a1.545 1.545 0 0 0-1.194-.462 1.609 1.609 0 0 0-1.464.747 1.527 1.527 0 0 0-1.378-.747 1.374 1.374 0 0 0-1.22.624v-.518h-.907v4.202h.916v-2.312a.99.99 0 0 1 .249-.8.972.972 0 0 1 .77-.317c.602 0 .907.396.907 1.108v2.338h.916v-2.33a.994.994 0 0 1 .25-.798.977.977 0 0 1 .77-.318c.619 0 .915.396.915 1.108v2.338l.915-.017zm13.544-4.202h-1.491v-1.275h-.915v1.275h-.829v.835h.846v1.934c0 .976.375 1.556 1.447 1.556.4.001.794-.112 1.134-.325l-.262-.783c-.243.146-.52.228-.802.237-.436 0-.602-.28-.602-.703v-1.916h1.482l-.008-.835zm7.733-.106a1.227 1.227 0 0 0-1.099.615v-.51h-.898v4.203h.907v-2.356c0-.695.296-1.082.872-1.082.194-.002.386.034.566.106l.28-.88a1.925 1.925 0 0 0-.646-.114l.018.018zm-11.691.44a3.096 3.096 0 0 0-1.7-.44c-1.055 0-1.744.51-1.744 1.345 0 .686.506 1.108 1.439 1.24l.436.061c.496.07.732.202.732.44 0 .325-.331.51-.95.51a2.206 2.206 0 0 1-1.387-.44l-.435.712a2.99 2.99 0 0 0 1.804.545c1.203 0 1.9-.571 1.9-1.371s-.549-1.125-1.455-1.257l-.436-.062c-.392-.053-.706-.132-.706-.413 0-.281.296-.492.793-.492.46.005.91.13 1.308.36l.4-.738zm24.284-.44a1.227 1.227 0 0 0-1.099.615v-.51h-.898v4.203h.907v-2.356c0-.695.296-1.082.872-1.082.194-.002.386.034.566.106l.28-.88a1.925 1.925 0 0 0-.646-.114l.018.018zm-11.682 2.198a2.133 2.133 0 0 0 .63 1.594 2.096 2.096 0 0 0 1.593.604c.544.028 1.08-.151 1.5-.501l-.437-.739a1.821 1.821 0 0 1-1.09.378 1.345 1.345 0 0 1-1.23-1.345c0-.703.536-1.288 1.23-1.345.395.004.777.137 1.09.378l.436-.738a2.168 2.168 0 0 0-1.5-.502 2.096 2.096 0 0 0-1.592.604 2.133 2.133 0 0 0-.63 1.594v.018zm8.49 0v-2.092h-.906v.51a1.577 1.577 0 0 0-1.307-.616c-1.204 0-2.18.984-2.18 2.198s.976 2.198 2.18 2.198c.508.019.995-.21 1.307-.616v.51h.907v-2.092zm-3.373 0c.04-.69.62-1.22 1.305-1.195a1.266 1.266 0 0 1 1.212 1.29 1.265 1.265 0 0 1-1.253 1.25 1.246 1.246 0 0 1-.924-.394c-.24-.255-.363-.6-.34-.951zM25.67 35.367a2.19 2.19 0 0 0-2.149 2.229 2.188 2.188 0 0 0 2.21 2.167 2.519 2.519 0 0 0 1.73-.572l-.435-.677c-.345.279-.771.433-1.212.44a1.158 1.158 0 0 1-1.247-1.029h3.095v-.351c0-1.32-.81-2.198-1.979-2.198l-.013-.009zm0 .818c.274-.006.54.098.737.29.198.19.312.453.318.73h-2.18a1.076 1.076 0 0 1 1.108-1.02h.017zm22.715 1.389v-3.79h-.872v2.198a1.577 1.577 0 0 0-1.308-.615c-1.204 0-2.18.984-2.18 2.198s.976 2.198 2.18 2.198c.509.019.995-.21 1.308-.616v.51h.872v-2.083zm1.512 1.49a.433.433 0 0 1 .3.118.412.412 0 0 1-.135.677.407.407 0 0 1-.165.036.436.436 0 0 1-.392-.255.416.416 0 0 1 .091-.458.436.436 0 0 1 .314-.118h-.013zm0 .743a.307.307 0 0 0 .227-.097.327.327 0 0 0 0-.44.312.312 0 0 0-.353-.07.318.318 0 0 0-.105.07.327.327 0 0 0 0 .44c.03.03.066.054.105.07a.32.32 0 0 0 .14.027h-.014zm.026-.523c.041-.002.081.01.114.035a.11.11 0 0 1 .039.092.106.106 0 0 1-.03.08.152.152 0 0 1-.092.039l.126.145h-.1l-.118-.145h-.039v.145h-.083v-.387l.183-.004zm-.096.074v.106h.096a.09.09 0 0 0 .053 0 .044.044 0 0 0 0-.04.044.044 0 0 0 0-.04.09.09 0 0 0-.053 0l-.096-.026zm-4.794-1.784c.04-.69.62-1.221 1.304-1.195a1.266 1.266 0 0 1 1.213 1.29 1.265 1.265 0 0 1-1.253 1.25 1.246 1.246 0 0 1-.924-.394c-.24-.255-.364-.6-.34-.951zm-30.614 0v-2.101h-.906v.51a1.577 1.577 0 0 0-1.308-.616c-1.204 0-2.18.984-2.18 2.198s.976 2.198 2.18 2.198c.509.019.995-.21 1.308-.616v.51h.906v-2.083zm-3.373 0c.04-.69.62-1.221 1.304-1.195a1.266 1.266 0 0 1 1.213 1.29 1.265 1.265 0 0 1-1.253 1.25 1.246 1.246 0 0 1-.93-.39 1.268 1.268 0 0 1-.343-.955h.009z" fill="#000"/><path fill="#FF5F00" d="M18.591 3.45h13.73v24.884h-13.73z"/><path d="M19.463 15.895A15.847 15.847 0 0 1 25.456 3.45C19.022-1.65 9.783-.906 4.231 5.157c-5.551 6.062-5.551 15.409 0 21.47 5.552 6.063 14.791 6.806 21.225 1.707a15.847 15.847 0 0 1-5.993-12.44z" fill="#EB001B"/><path d="M50.847 15.895c0 6.058-3.43 11.585-8.834 14.232a15.586 15.586 0 0 1-16.557-1.793c3.786-3 5.996-7.586 5.996-12.442 0-4.855-2.21-9.441-5.996-12.441a15.586 15.586 0 0 1 16.557-1.794c5.404 2.648 8.834 8.174 8.834 14.233v.005zM49.43 26.107v-.85h.259v-.176h-.655v.176h.28v.85h.116zm1.27 0v-1.026h-.197l-.231.733-.231-.733h-.176v1.026h.143v-.77l.214.667h.149l.214-.666v.776l.116-.007z" fill="#F79E1B"/></g></svg>