<svg width="100" height="21" xmlns="http://www.w3.org/2000/svg"><g fill-rule="nonzero" fill="none"><path d="M55.192 10.84c.346-.485.573-.958.8-1.422.958-1.975 1.925-3.95 2.883-5.933.187-.385.375-.78.434-1.195.05-.355.188-.444.533-.424.691.03 1.382.01 2.073.01.138 0 .306-.05.326.187.02.227-.128.227-.277.247l-.444.06c-.483.078-.78.325-.81.838-.088 1.313-.049 2.626-.01 3.94.05 1.381.1 2.753.14 4.135.029 1.076.088 1.165 1.174 1.343.187.03.266.089.247.276-.02.168-.109.217-.267.208a23.05 23.05 0 0 0-3.692 0c-.197.02-.266-.1-.286-.257-.02-.178.108-.217.256-.227.149-.01.297-.02.445-.04.444-.059.671-.286.671-.75v-7.61c-.286.295-.405.552-.523.809-1.195 2.665-2.666 5.192-3.83 7.877-.06.138-.09.296-.277.306-.138.01-.178-.118-.217-.227-.938-2.37-2.142-4.61-3.169-6.93-.266-.592-.523-1.184-.878-1.767-.07 1.402-.139 2.794-.198 4.196a122.8 122.8 0 0 0-.079 2.714c0 .227.04.454.06.681.029.514.335.721.809.731.079 0 .168.01.247.01.187 0 .385 0 .365.266-.02.237-.207.218-.375.198-.652-.099-1.313-.05-1.975-.05-.375 0-.75.03-1.135.06-.168.01-.296-.01-.326-.208-.03-.197.08-.237.247-.276 1.057-.217 1.096-.217 1.205-1.283.266-2.646.434-5.311.473-7.967.01-.661-.158-.849-.79-.997a5.25 5.25 0 0 0-.384-.069c-.138-.02-.267-.05-.247-.237.02-.168.118-.207.276-.207.79.01 1.58.01 2.37 0 .157 0 .236.05.236.217.03.83.395 1.56.75 2.28 1.017 2.162 2.084 4.285 3.17 6.486zM99.94 3.544a3.415 3.415 0 0 1-3.454 3.425C94.58 6.96 93.02 5.38 93.04 3.514 93.07 1.61 94.62.08 96.515.09c1.925 0 3.426 1.53 3.426 3.455zm-.927-1.135c-.405-.119-.612.03-.76.434-.208.533-.504 1.037-.79 1.619-.296-.602-.592-1.086-.77-1.61-.148-.433-.346-.562-.77-.433.365.315.336 1.964-.02 2.556.454.08.435.08.405-.325a5.31 5.31 0 0 1 .109-1.55c.325.69.621 1.303.928 1.954.335-.651.631-1.234.937-1.826.05.612.287 1.204-.059 1.757h.78c-.385-.454-.375-2.211.01-2.576zm-5.104 1.49c.504.099.908.08 1.303-.059.346-.118.583-.355.553-.73-.03-.405-.276-.682-.691-.711-.385-.03-.78-.01-1.165-.01.365.168.286.484.286.77v.345c.01.109-.03.247.139.257.217.01.177-.148.177-.266 0-.178-.01-.366 0-.543.01-.148-.098-.366.139-.415.217-.04.424.01.572.207.267.356.128.879-.306 1.007-.276.08-.592.09-1.007.148zm.938 1.126c-.415-.129-.316-.464-.316-.75 0-.119.01-.237-.158-.247-.178-.01-.168.118-.168.237.01.286-.02.562-.385.75.405.01.711.01 1.027.01zM76.347 9.97c0 .622.01 1.254 0 1.876-.01.484.208.74.691.77.178.01.415-.01.385.257-.03.286-.246.227-.454.207a15.19 15.19 0 0 0-2.507 0c-.178.01-.385.079-.415-.188-.03-.276.178-.256.356-.276.454-.05.651-.316.651-.77 0-1.106.02-2.201 0-3.307-.01-.622-.217-1.185-.868-1.422-.691-.246-1.363-.197-1.955.277-.316.257-.405.622-.405 1.017v3.307c0 .661.08.76.72.898.169.04.277.079.267.267-.02.197-.138.227-.306.217a13.758 13.758 0 0 0-2.704 0c-.188.02-.287-.04-.306-.227-.02-.198.098-.227.266-.257.671-.118.75-.217.76-.908.01-1.234-.01-2.468.01-3.702 0-.365-.099-.642-.405-.83-.325-.197-.325-.365.05-.532a14.88 14.88 0 0 0 1.322-.642c.297-.158.326-.03.336.227.04.77.04.77.76.405.444-.217.899-.395 1.392-.464 1.323-.208 2.31.592 2.35 1.925.02.622 0 1.253 0 1.875h.01zM.089 8.006h3.593c.612 0 1.214-.07 1.807-.227 1.313-.356 2.023-1.471 1.885-2.952-.128-1.47-.888-2.25-2.32-2.389C3.81 2.32 3.801 2.33 3.801 3.544c0 1.234-.01 2.468.01 3.702 0 .326-.05.464-.415.454-.968-.02-.968 0-.977-.977-.01-1.106 0-2.202-.05-3.307-.03-.721-.207-.86-.928-.938-.069-.01-.128-.01-.197-.02-.158-.01-.306-.04-.306-.237-.01-.227.148-.257.326-.266 1.263-.119 2.527-.109 3.79-.08.81.02 1.61.129 2.34.504 1.046.543 1.55 1.451 1.6 2.596.039 1.066-.346 1.935-1.304 2.537-1.58.988-3.327 1.037-5.094.938A11.42 11.42 0 0 1 .09 8.006z" fill="#EF1515"/><path d="M62.231 9.763c.04-2.103 1.629-3.682 3.672-3.623 1.975.05 3.426 1.57 3.386 3.544-.04 2.172-1.55 3.692-3.633 3.633-2.033-.07-3.455-1.54-3.425-3.554zm5.577.138c-.01-.977-.187-1.895-.878-2.645-.77-.84-1.965-.75-2.636.167-.326.455-.484.968-.543 1.51-.128 1.215 0 2.38.899 3.308.79.81 2.063.661 2.665-.306.375-.622.493-1.313.493-2.034zM22.646 9.654c0 .692-.01 1.383 0 2.074.01.72.128.839.858.908.168.02.445-.099.425.237-.02.345-.286.227-.484.217-.938-.06-1.866-.08-2.803 0-.168.01-.346.06-.375-.188-.03-.227.118-.256.306-.286.661-.109.77-.197.78-.84.02-1.44.01-2.891.01-4.333 0-.227-.1-.335-.326-.326-.129.01-.267.01-.395 0-.109 0-.247.02-.267-.138-.02-.128.03-.237.158-.266.76-.188.83-.74.869-1.422.069-1.175.335-2.32 1.165-3.228.839-.928 1.895-1.254 3.12-.977.325.079.621.227.809.523.187.306.167.612-.109.84-.276.226-.573.216-.849-.02-.148-.129-.267-.287-.424-.415-.78-.622-1.698-.385-2.074.553-.246.631-.335 1.303-.365 1.974-.02.494 0 .987-.02 1.48-.01.287.11.366.376.366.513-.01 1.016 0 1.53 0 .207 0 .404-.02.385.286-.01.267-.08.444-.395.435-.494-.01-.987.02-1.48-.01-.337-.02-.435.098-.425.414.01.73 0 1.442 0 2.142zM87.848 11.412a35.715 35.715 0 0 0 1.718-4.008c.108-.296 0-.474-.326-.514-.148-.02-.286-.059-.434-.079-.139-.03-.208-.128-.188-.246.02-.139.089-.227.267-.218.819.07 1.638.08 2.458.01.148-.01.266 0 .296.178.02.158-.06.257-.208.276-.69.09-.977.622-1.243 1.146-1.225 2.379-2.34 4.807-3.465 7.235-.227.494-.445.988-.701 1.462-.267.483-.662.66-1.145.572-.405-.069-.622-.306-.612-.71.01-.396.236-.721.631-.682.76.08 1.007-.424 1.333-.928.76-1.184.928-2.35.296-3.672-.523-1.096-.878-2.26-1.273-3.406-.188-.533-.474-.938-1.076-.997-.178-.02-.287-.089-.267-.276.02-.198.138-.208.316-.198.889.07 1.777.07 2.656 0 .157-.01.306-.03.325.188.02.187-.089.237-.256.286-.642.188-.652.198-.435.859.415 1.204.79 2.428 1.333 3.722zM81.066 8.736c-.572 0-1.155.03-1.727-.01-.454-.03-.553.159-.543.573.049 1.61.997 2.774 2.448 2.991.671.099 1.224-.089 1.688-.582.118-.119.217-.356.424-.178.227.188.02.365-.088.504-.82 1.076-1.925 1.431-3.229 1.164-1.263-.256-1.984-1.076-2.29-2.3-.513-2.033.553-4.087 2.4-4.64 1.243-.374 2.428.01 3.03.998.089.138.158.286.207.444.237.78.05 1.027-.76 1.027-.504.02-1.027.01-1.56.01zm-.73-.543v.02c.424-.02.849-.03 1.273-.079.543-.059.691-.345.454-.839-.108-.217-.286-.355-.493-.454-.86-.424-2.192.148-2.508 1.046-.099.267.01.306.237.306.346-.01.691 0 1.037 0z" fill="#EF1515"/><path d="M28.243 8.736c-.573 0-1.155.02-1.728-.01-.424-.02-.543.139-.503.553.079 1.057.375 2.004 1.303 2.626.948.632 2.053.533 2.873-.256.098-.1.187-.257.365-.129.197.148.05.296-.03.425-.592.997-1.836 1.49-3.188 1.273-1.205-.187-2.143-1.056-2.39-2.32-.295-1.48-.039-2.853 1.116-3.929 1.214-1.125 3.13-1.105 4.127.02.138.158.256.336.335.543.346.889.129 1.204-.81 1.204h-1.47zm.72-.621c.277-.02.376-.178.366-.415-.02-.306-.119-.573-.395-.76-.85-.583-2.419-.02-2.715.967-.069.237.02.286.227.286.375-.01 2.044-.049 2.517-.078zM12.014 8.723c-.572 0-1.155.02-1.727-.01-.425-.02-.543.139-.504.553.08 1.057.375 2.004 1.303 2.626.948.632 2.054.533 2.873-.257.099-.098.188-.256.365-.128.198.148.05.296-.03.425-.592.997-1.835 1.49-3.188 1.273-1.204-.188-2.142-1.056-2.389-2.32-.296-1.48-.04-2.853 1.116-3.929 1.214-1.125 3.129-1.105 4.126.02.138.158.257.336.336.543.345.888.128 1.204-.81 1.204h-1.47zm.721-.622c.276-.02.375-.177.365-.414-.02-.306-.118-.573-.395-.76-.849-.583-2.418-.02-2.714.967-.07.237.02.286.227.286.375-.01 2.043-.049 2.517-.079zM31.135 9.93c.04-3.306 3.268-4.323 5.43-3.543.414.148.572.879.276 1.214-.247.277-.424.089-.612-.099-.474-.503-1.046-.79-1.757-.72-.82.079-1.412.513-1.787 1.224-.612 1.165-.345 2.665.592 3.593 1.017 1.007 2.537.968 3.495-.089.099-.108.158-.276.345-.158.228.148.1.306.02.464-.632 1.175-2.27 1.767-3.702 1.343-1.47-.434-2.29-1.58-2.3-3.228zM17.098 7.137c.592-.414 1.036-.878 1.688-.977.355-.06.661.05.868.345.168.257.11.543-.039.79-.158.277-.424.356-.72.316-.139-.02-.267-.109-.395-.178-.76-.395-1.294-.118-1.373.74-.04.396-.02.79-.02 1.185v2.37c0 .72.139.858.85.908.069 0 .128.01.197.01.178 0 .276.069.267.266-.01.217-.158.227-.306.217-1.017-.089-2.034-.108-3.05 0-.169.02-.248-.059-.277-.207-.04-.197.079-.237.247-.276.71-.168.75-.227.75-.958 0-1.204-.01-2.399 0-3.603 0-.365-.05-.671-.415-.869-.316-.178-.335-.375.05-.543.454-.197.898-.404 1.332-.641.286-.158.356-.03.356.227-.01.246-.01.523-.01.878zM38.618 9.674c0-.69-.01-1.382 0-2.073.01-.345-.099-.533-.484-.484-.138.02-.355.1-.404-.148-.06-.256.157-.286.325-.335.622-.188 1.027-.622 1.343-1.165.089-.148.158-.296.375-.237.207.06.138.227.148.365.01.099.01.198 0 .296-.06.395.109.533.503.504.474-.03.948 0 1.432-.01.227-.01.385.04.375.316-.01.257-.07.434-.395.424-.523-.02-1.056.01-1.58-.02-.266 0-.374.11-.374.346 0 1.333-.109 2.665.059 3.988.128 1.007.868 1.343 1.806.899.129-.06.257-.208.375-.02.109.168-.04.276-.138.375-.602.602-1.925.8-2.675.385-.494-.276-.681-.74-.691-1.283-.01-.711 0-1.422 0-2.123zM3.79 10.405c0 .316-.01.622 0 .938.02.937.257 1.184 1.185 1.283.178.02.445-.07.435.247-.01.345-.287.246-.484.237a24.978 24.978 0 0 0-3.544 0c-.168.01-.395.079-.434-.188-.05-.306.207-.267.395-.296.77-.119.937-.247.997-1.027.059-.79.059-1.58.059-2.369 0-.267.05-.365.345-.345 1.047.049 1.047.039 1.047 1.076v.444z" fill="#EF1515"/><path d="M62.626 19.487c0 .286-.01.562 0 .839.01.266.02.444-.365.444-.405 0-.346-.207-.356-.464l-.03-3.11c0-.118-.078-.296.11-.325.167-.02.463-.099.493.04.099.453.256.098.355.049.671-.385 1.422-.129 1.708.582a1.75 1.75 0 0 1-.02 1.392c-.306.75-.947.928-1.895.553zm0-1.234c0 .651.336 1.007.81.839.394-.129.592-.622.463-1.155-.089-.346-.296-.592-.69-.563-.376.04-.583.356-.583.879zM53.84 18.243c0 .345.01.69 0 1.036 0 .119.08.306-.069.346-.158.05-.415.108-.503-.04-.129-.197-.198-.158-.366-.059-.8.435-1.49.07-1.56-.849-.039-.454-.01-.918-.01-1.382 0-.257-.039-.464.356-.454.355.01.385.148.375.434-.02.425-.01.85.01 1.284.01.316.158.553.513.523.326-.02.504-.237.514-.553.01-.464.03-.918 0-1.382-.02-.355.207-.286.414-.296.217-.01.375 0 .346.306-.04.365-.02.73-.02 1.086zM67.098 18.46c-.178 0-.366-.01-.543 0-.109.01-.257-.07-.316.06-.07.147.04.286.148.384.345.306.75.277 1.165.178.128-.03.266-.089.296.128.02.148.099.306-.138.395-.533.217-1.441.099-1.826-.266-.395-.385-.514-1.096-.277-1.698a1.353 1.353 0 0 1 1.56-.82c.582.139.948.74.888 1.412-.02.207-.108.237-.276.237-.217-.01-.454-.01-.681-.01zm-.306-.484c.272-.002.543.024.543-.197.03-.286-.208-.474-.514-.484-.316 0-.582.198-.572.494 0 .211.27.19.543.187zM75.319 18.437c-.178 0-.366-.01-.543 0-.109.01-.257-.069-.316.06-.07.147.04.286.148.384.345.306.75.277 1.165.178.128-.03.266-.089.296.128.02.148.099.306-.138.395-.533.217-1.441.099-1.826-.266-.395-.385-.514-1.096-.277-1.698a1.353 1.353 0 0 1 1.56-.82c.582.139.948.74.888 1.412-.02.207-.108.237-.276.237-.217-.01-.454-.01-.681-.01zm-.306-.484c.272-.002.543.024.543-.197.03-.286-.208-.474-.514-.484-.316 0-.582.198-.572.494 0 .211.27.19.543.187zM71.747 18.53v-.79c0-.159.03-.297-.207-.356-.276-.07-.188-.464-.07-.474.386-.06.287-.345.337-.553.128-.533.582-.888 1.115-.819.148.02.385-.04.365.267-.02.227-.03.385-.325.325-.198-.04-.356.09-.415.277-.07.227-.178.513.266.464.198-.02.297.03.287.256-.01.208-.06.306-.277.277-.316-.05-.335.128-.325.375.01.474-.01.948.01 1.431.01.287.02.474-.386.474-.444 0-.365-.247-.365-.503-.01-.227-.01-.445-.01-.652zM81.165 16.22c0 .068.03.167.01.256-.04.286.03.444.365.385.207-.04.296.04.296.266 0 .227-.099.296-.296.267-.336-.06-.375.118-.355.395.02.276.01.553 0 .839-.01.286.079.503.414.464.267-.03.188.158.198.286.02.158.01.267-.198.306-.641.138-1.086-.168-1.115-.81-.02-.305.01-.621-.01-.937-.01-.227.148-.543-.306-.573-.158-.01-.089-.365-.08-.375.475-.108.356-1.007 1.077-.77zM57.966 18.302v-.592c.01-.178-.01-.326-.246-.316-.237.01-.218-.286-.178-.306.375-.178.336-.701.74-.84.257-.088.425-.098.375.248-.049.306.07.424.376.375.207-.03.286.049.296.266 0 .227-.099.296-.296.267-.316-.05-.405.089-.376.385.02.276.01.553.01.839 0 .276.06.513.405.474.247-.03.217.118.217.266 0 .148.02.267-.187.326-.642.168-1.106-.168-1.136-.84-.01-.197 0-.374 0-.552zM55.992 16.792c.178-.03.365.04.553.089.217.069.148.207.099.355-.04.128-.06.276-.257.158-.04-.02-.099-.03-.138-.04-.227-.04-.514-.118-.602.148-.109.306.227.336.414.435.158.089.336.138.474.256a.805.805 0 0 1-.109 1.333c-.444.237-.918.198-1.391.06-.237-.07-.149-.228-.129-.386.04-.246.168-.187.316-.138.05.02.089.05.138.05.267.03.612.177.73-.178.11-.356-.276-.385-.493-.484-.543-.237-.74-.513-.661-.957.06-.415.464-.691 1.056-.701zM50.168 17.394c-.03.444.069.967-.08 1.48-.187.662-1.046 1.057-1.667.78-.208-.098-.1-.246-.1-.375-.01-.158.06-.227.238-.227.79-.04.868-.128.878-.918 0-.671.02-1.342-.01-2.014-.01-.315.139-.325.385-.335.267-.01.385.059.366.345-.03.395-.01.79-.01 1.264zM78.628 19.694c-.75 0-1.234-.276-1.422-.81-.217-.592-.168-1.164.287-1.648.375-.405 1.145-.553 1.648-.375.217.079.178.197.138.335-.049.158-.059.267-.316.218-.612-.129-.987.108-1.105.612-.148.631.326 1.184.957 1.095.227-.03.454-.148.494.227.04.366-.237.287-.424.326-.119.02-.237.02-.257.02zM69.724 17.177c.148-.119.256-.217.375-.296.138-.09.335-.158.464-.06.128.099.04.306.059.474.02.267-.178.158-.306.178-.365.079-.513.326-.533.671-.01.365-.02.72 0 1.086.02.306-.06.424-.395.424-.336 0-.365-.128-.355-.404.02-.642-.01-1.284.02-1.925.01-.158-.178-.425.157-.474.237-.02.494-.02.514.326z" fill="#0B0B0B"/><path d="M99.013 2.409c-.385.365-.385 2.112 0 2.586h-.78c.345-.553.109-1.155.06-1.757-.297.582-.603 1.175-.939 1.826-.316-.661-.602-1.263-.928-1.954a5.289 5.289 0 0 0-.108 1.55c.03.404.05.404-.405.325.365-.582.385-2.24.02-2.557.424-.128.622 0 .77.435.178.523.474 1.007.77 1.609.286-.583.592-1.086.79-1.62.138-.414.345-.552.75-.443zM93.91 3.9c.424-.06.74-.07 1.026-.149.424-.118.572-.651.306-1.007a.566.566 0 0 0-.573-.207c-.237.05-.128.267-.138.415-.02.177 0 .365 0 .543 0 .128.03.286-.178.266-.177-.01-.138-.148-.138-.257-.01-.118 0-.227 0-.345 0-.286.07-.592-.286-.77.385 0 .78-.03 1.165.01.414.04.661.306.69.71.03.376-.207.613-.552.731-.424.128-.83.158-1.323.06zM94.847 5.025H93.81c.376-.188.395-.464.385-.75 0-.119-.01-.237.168-.237.168 0 .158.128.158.246.01.277-.089.612.326.74z" fill="#FEFDFD"/></g></svg>