<svg width="70" height="24" xmlns="http://www.w3.org/2000/svg"><path d="M49.87 5.766c1.575 0 2.85-1.29 2.85-2.882S51.445 0 49.87 0c-1.571 0-2.846 1.292-2.846 2.884 0 1.592 1.275 2.882 2.846 2.882zM28.046 7.322c-.13.327-1.055 2.973-3.293 5.715V1.312l-5.964 1.193v21.254h5.964v-6.57c1.728 2.622 2.58 6.57 2.58 6.57h7.144c-.707-2.973-3.798-8.456-3.798-8.456 2.774-3.56 3.993-7.352 4.186-7.981h-6.82zM43.724 7.1c-5.341.174-8.053 2.6-8.053 7.421v9.238h5.828v-7.533c0-2.887.373-4.125 3.758-4.243V7.185c-.57-.123-1.533-.085-1.533-.085zM8.787 9.663c-.73-.049-2.422-.16-2.422-1.7 0-1.86 2.435-1.86 3.348-1.86 1.606 0 3.686.48 5.17.93 0 0 .83.295 1.534.598l.066.018V2.556l-.09-.026c-1.753-.62-3.791-1.218-7.57-1.218C2.308 1.312 0 5.153 0 8.444c0 1.897.803 6.362 8.265 6.877.632.039 2.31.137 2.31 1.729 0 1.315-1.374 2.09-3.685 2.09-2.533 0-4.99-.654-6.483-1.274v5.245c2.235.593 4.753.889 7.705.889 6.37 0 9.224-3.634 9.224-7.236 0-4.084-3.193-6.738-8.55-7.101zm38.195 14.096h5.78V7.34h-5.78v16.418zm16.665-21.4v21.4h5.782V1.312l-5.782 1.046zm-8.436 0l5.776-1.047V23.76H55.21v-21.4z" fill="#972772" fill-rule="nonzero"/></svg>