<svg width="62" height="40" xmlns="http://www.w3.org/2000/svg"><g fill-rule="nonzero" fill="none"><rect fill="#FFF" width="61.818" height="40" rx="4"/><path d="M3.636 1.818a1.818 1.818 0 0 0-1.818 1.818v32.728c0 1.004.814 1.818 1.818 1.818h54.546A1.818 1.818 0 0 0 60 36.364V3.636a1.818 1.818 0 0 0-1.818-1.818H3.636zm0-1.818h54.546a3.636 3.636 0 0 1 3.636 3.636v32.728A3.636 3.636 0 0 1 58.182 40H3.636A3.636 3.636 0 0 1 0 36.364V3.636A3.636 3.636 0 0 1 3.636 0z" fill="#BEBEBE"/><path d="M4 0h53.818a4 4 0 0 1 4 4v3.273H0V4a4 4 0 0 1 4-4z" fill="#1A1F71"/><path d="M4 40h53.818a4 4 0 0 0 4-4v-3.273H0V36a4 4 0 0 0 4 4z" fill="#F7B600"/><path d="M24.096 12.134l-6.438 15.324h-4.186l-3.16-12.243c-.197-.75-.355-1.027-.948-1.343a17.429 17.429 0 0 0-3.91-1.303l.08-.435h6.753a1.813 1.813 0 0 1 1.817 1.58l1.658 8.886 4.108-10.426h4.226v-.04zm16.43 10.308c0-4.028-5.609-4.265-5.57-6.082 0-.553.553-1.145 1.699-1.303a7.69 7.69 0 0 1 3.91.671l.71-3.238a10.403 10.403 0 0 0-3.712-.672c-3.91 0-6.674 2.093-6.714 5.055-.04 2.212 1.975 3.436 3.476 4.187 1.5.75 2.053 1.224 2.053 1.896 0 1.026-1.224 1.5-2.37 1.5a8.001 8.001 0 0 1-4.067-.987l-.711 3.357c.908.434 2.646.79 4.423.83 4.108.039 6.833-2.015 6.872-5.214zm10.347 5.016h3.672l-3.199-15.324H47.95a1.82 1.82 0 0 0-1.698 1.106l-5.964 14.218h4.147l.83-2.29h5.094l.514 2.29zm-4.424-5.45l2.093-5.766 1.185 5.766H46.45zm-16.706-9.874l-3.278 15.324h-3.95l3.279-15.324h3.95z" fill="#1A1F71"/></g></svg>